<svg xmlns="http://www.w3.org/2000/svg" width="120" height="120" fill="none"><path fill="#fff" d="M0 0h120v120H0z"/><path fill="#000" d="m102.645 61.543-.081-.916c-.023-.685-.29-1.126-.799-1.393.637-.267.961-.789.961-1.554 0-.128-.012-.244-.035-.36l-4.963-1.578h-.533v6.718h1.54v-2.495h1.434c.289 0 .509.081.613.186.104.127.185.371.243.684l.058.708c.023.441.104.766.243.917h1.62c-.162-.186-.278-.5-.301-.917Zm-2.442-2.842h-1.457v-1.648h1.411c.637 0 .984.29.984.812-.012.58-.324.836-.938.836Z"/><path fill="#000" d="M106.599 59.179c0 1.81-.659 3.33-1.944 4.594-1.318 1.265-2.915 1.891-4.824 1.891-1.91 0-3.506-.626-4.802-1.891-1.33-1.265-1.966-2.785-1.966-4.594 0-1.694.555-3.168 1.723-4.374l1.562.499c-.092.07-.173.15-.254.232-1.007.974-1.516 2.18-1.516 3.654 0 1.45.498 2.657 1.516 3.597 1.006.998 2.256 1.473 3.737 1.473 1.516 0 2.765-.475 3.772-1.438.983-.975 1.481-2.182 1.481-3.62a5.19 5.19 0 0 0-.116-1.137l1.597.51c.023.186.034.395.034.604ZM88.586 52.83l-3.68 18.413-17.54 5.673V48.688L61.34 78.865l-16.58 5.36V46.554l-10.598-3.028V87.38l-8.759 2.82V41.02L13 37.47V29l40.425 12.623V75.21l6.306-31.58 16.302 5.198v23.621l4.43-22.206 8.123 2.587Z"/></svg>